<?xml version="1.0" standalone="no"?>
<!DOCTYPE svg PUBLIC "-//W3C//DTD SVG 20010904//EN"
 "http://www.w3.org/TR/2001/REC-SVG-20010904/DTD/svg10.dtd">
<svg version="1.0" xmlns="http://www.w3.org/2000/svg"
 width="300.000000pt" height="291.000000pt" viewBox="0 0 300.000000 291.000000"
 preserveAspectRatio="xMidYMid meet">
<metadata>
Created by potrace 1.16, written by Peter Selinger 2001-2019
</metadata>
<g transform="translate(0.000000,291.000000) scale(0.100000,-0.100000)"
fill="#000000" stroke="none">
<path d="M1335 2761 c-96 -43 -145 -117 -145 -217 0 -32 4 -74 9 -92 11 -37
11 -37 -55 -17 -70 21 -166 19 -212 -4 -36 -18 -127 -107 -167 -163 l-20 -28
-49 25 c-94 47 -208 28 -270 -45 -40 -48 -50 -110 -33 -210 l8 -45 -52 -30
c-28 -16 -71 -52 -96 -79 -42 -48 -123 -198 -123 -231 0 -24 28 -30 64 -12
l33 15 -14 -51 c-10 -37 -13 -91 -10 -182 4 -130 18 -195 41 -195 7 0 41 18
76 41 34 22 64 38 66 36 2 -2 -6 -50 -17 -108 -17 -87 -20 -128 -16 -254 5
-145 23 -255 45 -277 8 -8 16 -7 26 2 18 14 16 18 42 -75 9 -33 28 -82 42
-110 30 -61 128 -158 206 -204 83 -50 244 -102 319 -104 57 -2 62 0 59 18 -2
11 -16 34 -32 50 -26 28 -120 172 -120 185 0 3 51 -20 114 -51 154 -76 384
-153 456 -153 94 1 390 110 548 203 34 21 52 27 52 18 0 -16 -73 -135 -123
-200 -48 -63 -48 -77 1 -77 38 0 173 40 271 79 65 26 176 98 213 137 51 56 97
145 113 223 20 93 34 132 46 125 5 -3 9 -16 9 -30 0 -30 16 -64 31 -64 16 0
28 46 38 148 11 125 -2 268 -34 371 l-26 80 21 41 c12 23 26 39 33 37 30 -11
46 16 73 122 29 110 29 110 56 104 l28 -5 0 59 c0 140 -89 310 -205 395 l-45
33 5 52 c12 105 -29 184 -120 229 -63 30 -121 30 -188 -2 l-36 -17 -45 37
c-25 20 -76 51 -113 69 -60 28 -80 32 -174 35 -72 3 -131 -1 -184 -12 -137
-28 -112 -12 113 74 124 47 133 59 73 94 -44 25 -190 34 -256 16 -60 -17 -122
-73 -169 -153 -43 -75 -48 -76 -108 -9 -68 75 -72 141 -17 282 16 41 29 78 29
83 0 13 -44 7 -85 -12z m-3 -356 c24 -44 56 -71 120 -100 56 -26 78 -26 78 -2
0 25 59 133 86 159 41 38 112 68 163 68 54 0 49 -6 -33 -40 -119 -51 -176
-117 -176 -208 0 -48 9 -51 53 -18 42 32 154 65 243 73 82 7 179 -9 236 -38
43 -22 108 -76 108 -91 0 -5 -16 -16 -37 -24 -34 -15 -40 -14 -92 6 -71 28
-216 38 -292 20 -70 -17 -154 -52 -225 -94 l-59 -34 -29 25 c-40 33 -110 68
-181 88 -83 24 -221 16 -334 -20 -87 -28 -94 -27 -144 10 -18 13 -18 15 3 55
33 65 99 125 160 145 84 28 138 11 261 -82 79 -59 103 -72 114 -63 11 9 3 31
-48 128 -56 106 -62 123 -62 178 0 52 4 66 30 100 l30 39 5 -125 c4 -89 10
-134 22 -155z m-665 -187 c14 -14 12 -17 -19 -27 -59 -19 -106 -67 -123 -123
-8 -29 -15 -64 -15 -80 0 -36 -12 -35 -43 2 -62 73 -41 176 47 232 37 23 128
21 153 -4z m1813 3 c53 -28 80 -74 80 -136 0 -37 -6 -61 -22 -85 -31 -45 -45
-47 -52 -8 -24 124 -58 174 -138 200 l-43 15 30 16 c40 22 103 21 145 -2z
m-455 -73 c214 -54 411 -368 430 -688 l5 -85 -19 54 c-10 29 -26 60 -35 69
-32 33 -41 1 -46 -176 l-5 -167 -109 233 c-109 230 -160 312 -196 312 -32 0
-32 -35 -1 -192 35 -183 45 -260 31 -238 -6 8 -44 80 -85 160 -81 157 -163
275 -208 300 -26 14 -29 14 -43 -4 -17 -24 -20 -232 -3 -320 6 -32 9 -60 6
-62 -12 -13 -100 85 -129 144 -30 61 -33 75 -34 168 -1 56 -5 107 -8 113 -16
26 -50 -16 -99 -117 -66 -142 -85 -198 -99 -304 -11 -83 -13 -87 -29 -72 -27
25 -96 172 -108 232 -14 68 -14 137 0 203 9 42 9 54 -4 66 -12 13 -16 13 -30
-1 -8 -9 -50 -120 -92 -247 -76 -228 -78 -231 -91 -200 -38 90 -54 276 -35
394 5 27 5 62 2 79 l-6 30 -22 -24 c-71 -75 -141 -373 -131 -557 l5 -85 -44
49 c-50 55 -88 124 -98 178 -14 73 -46 71 -81 -5 l-19 -42 -6 29 c-13 59 -9
227 7 303 32 156 117 282 248 370 109 73 186 97 316 97 132 0 186 -15 267 -77
35 -26 72 -48 82 -48 10 0 54 22 98 48 149 90 280 115 418 80z m-1238 -15 l35
-16 -108 -108 c-59 -59 -113 -105 -120 -102 -20 7 -35 63 -28 102 10 55 40 97
87 120 51 25 87 26 134 4z m1571 -10 c66 -49 88 -124 57 -193 l-18 -39 -93
117 c-86 107 -93 118 -77 130 24 18 98 10 131 -15z m273 -208 c62 -44 118
-123 155 -221 l24 -64 -30 0 -30 0 0 -77 0 -78 -21 43 c-23 47 -33 51 -49 22
-9 -17 -40 -192 -40 -228 0 -17 -63 57 -95 112 -14 24 -30 79 -39 132 -9 49
-29 130 -46 179 -27 80 -29 91 -15 111 12 18 127 93 144 94 3 0 21 -11 42 -25z
m-2105 -46 c24 -16 44 -35 44 -42 0 -7 -9 -50 -20 -97 -13 -56 -20 -123 -20
-197 l0 -112 -132 -70 -133 -70 -8 42 c-5 23 -6 85 -4 138 3 76 9 107 30 153
15 32 27 67 27 79 0 17 -5 19 -45 15 -25 -3 -45 -2 -45 1 0 19 62 101 103 137
91 81 116 83 203 23z m1355 -366 c62 -103 162 -309 157 -325 -2 -6 -26 -19
-54 -28 l-49 -17 -38 33 c-31 29 -45 34 -86 34 -109 0 -169 -93 -126 -196 11
-26 112 -181 171 -262 1 -2 61 35 132 82 106 68 135 92 151 125 24 47 27 117
6 145 -10 14 -15 45 -15 100 0 45 -7 141 -16 215 -8 73 -13 135 -11 137 2 2
36 -63 76 -144 86 -176 102 -244 83 -349 -7 -38 -26 -149 -43 -248 -20 -120
-38 -193 -52 -220 -44 -79 -241 -189 -492 -274 -82 -28 -158 -51 -168 -51 -9
0 -86 23 -170 51 -162 55 -292 115 -387 179 -49 33 -62 48 -78 92 -27 72 -68
259 -87 398 -8 63 -17 127 -20 143 -2 15 -1 27 2 27 4 0 31 -23 60 -52 34 -33
53 -61 53 -75 0 -69 47 -121 199 -217 l105 -66 33 48 c129 180 145 207 149
268 7 76 -15 114 -80 139 -60 23 -106 14 -150 -30 -30 -30 -36 -32 -52 -20
-18 13 -17 21 30 209 26 108 50 196 51 196 2 0 8 -24 14 -52 25 -116 90 -242
169 -326 75 -81 82 -75 80 71 -2 131 4 163 54 296 l32 84 20 -84 c24 -98 59
-161 115 -212 74 -67 191 -111 191 -73 0 8 -13 55 -30 104 -25 76 -30 105 -30
188 l1 99 25 -30 c14 -16 47 -67 75 -112z m-946 -68 c9 -44 32 -120 50 -168
l33 -88 -56 -25 c-30 -13 -57 -23 -58 -21 -11 10 -24 162 -19 212 7 70 26 177
31 173 2 -2 10 -39 19 -83z m-385 -142 c6 -27 15 -142 20 -258 10 -235 25
-334 75 -473 19 -53 33 -97 31 -99 -1 -2 -33 28 -69 66 -69 71 -117 154 -117
203 0 15 -5 39 -10 53 -9 23 -14 26 -40 20 l-29 -6 -3 73 c-4 107 8 260 27
339 14 55 24 75 51 99 19 16 39 30 44 30 4 0 14 -21 20 -47z m119 8 c21 -41
31 -92 57 -291 36 -284 93 -486 190 -678 l63 -124 -37 7 c-104 19 -247 101
-331 189 -64 69 -66 89 -4 42 106 -80 166 -116 194 -116 39 0 37 16 -12 81
-116 154 -169 364 -169 669 0 104 16 260 26 260 2 0 12 -17 23 -39z m1922
-107 c46 -97 69 -186 69 -272 0 -57 -2 -63 -19 -57 -24 7 -35 -9 -50 -69 -7
-27 -23 -70 -36 -96 -29 -57 -119 -166 -173 -209 l-39 -30 48 172 c27 95 49
178 49 185 0 8 -9 16 -21 19 -20 5 -20 10 -13 122 10 176 21 300 23 265 0 -18
9 -42 20 -55 28 -35 47 -12 61 73 12 67 14 70 27 52 9 -10 33 -55 54 -100z
m-249 -283 c-14 -82 -22 -156 -19 -165 4 -9 16 -16 27 -16 11 0 20 -2 20 -5 0
-2 -27 -77 -60 -165 -33 -88 -60 -172 -60 -185 0 -43 34 -29 145 60 58 47 108
85 111 85 16 0 -49 -89 -101 -139 -74 -72 -166 -120 -311 -165 l-40 -13 47 78
c91 153 157 356 199 619 26 164 25 160 48 160 18 0 18 -6 -6 -149z"/>
<path d="M1245 601 c62 -237 229 -361 366 -272 98 64 172 179 173 271 l1 45
-277 3 -276 2 13 -49z m482 -81 c-36 -87 -43 -98 -56 -87 -46 38 -161 67 -265
67 -70 0 -100 16 -110 57 -4 16 -9 36 -12 46 -5 16 11 17 239 17 l244 0 -40
-100z"/>
</g>
</svg>
